<svg height="480pt" viewBox="0 0 480.0112 480" width="480pt" xmlns="http://www.w3.org/2000/svg"><path d="m72.003906 216.003906c-2.726562 0-5.269531-1.386718-6.738281-3.6875-1.472656-2.296875-1.667969-5.1875-.527344-7.664062l48-104c1.851563-4.011719 6.605469-5.761719 10.617188-3.910156 4.011719 1.851562 5.761719 6.605468 3.914062 10.617187l-48 104c-1.308593 2.832031-4.144531 4.644531-7.265625 4.644531zm0 0" fill="#cfdfe8"/><path d="m120.003906 384.003906c-3.121094 0-5.957031-1.8125-7.265625-4.644531l-48-104c-1.851562-4.011719-.097656-8.765625 3.914063-10.617187 4.011718-1.851563 8.765625-.101563 10.617187 3.910156l48 104c1.140625 2.476562.941407 5.367187-.527343 7.664062-1.46875 2.300782-4.011719 3.6875-6.738282 3.6875zm0 0" fill="#cfdfe8"/><path d="m224.003906 72.003906h-80c-8.835937 0-16-7.160156-16-16 0-8.835937 7.164063-16 16-16h47.144532c8.039062.179688 15.046874-5.429687 16.640624-13.308594.789063-4.648437-.507812-9.410156-3.550781-13.015624-3.042969-3.601563-7.519531-5.675782-12.234375-5.675782h-64c-17.671875 0-32 14.328125-32 32v32c0 17.675782 14.328125 32 32 32h96c96 0 88 136 88 136s8 136-88 136h-96c-17.671875 0-32 14.328125-32 32v32c0 17.675782 14.328125 32 32 32h64c4.714844.003906 9.191406-2.070312 12.234375-5.675781 3.042969-3.601563 4.339844-8.363281 3.550781-13.011719-1.59375-7.878906-8.601562-13.488281-16.640624-13.3125h-47.144532c-8.835937 0-16-7.160156-16-16 0-8.835937 7.164063-16 16-16h80s120 8 120-168-120-168-120-168zm0 0" fill="#d3843d"/><path d="m424.003906 248.003906h-312c-4.417968 0-8-3.578125-8-8 0-4.417968 3.582032-8 8-8h312c4.417969 0 8 3.582032 8 8 0 4.421875-3.582031 8-8 8zm0 0" fill="#ceac9a"/><path d="m424.003906 216.003906v48l48-24zm0 0" fill="#7d8d9c"/><path d="m96.003906 272.003906h-88l16-32-16-32h88l16 32zm0 0" fill="#66342e"/><path d="m475.578125 232.84375-48-24c-2.480469-1.238281-5.425781-1.105469-7.78125.355469-2.359375 1.457031-3.792969 4.035156-3.792969 6.804687v16h-64.257812c-1.308594-61.765625-17.476563-107.902344-48.445313-136.871094-21.5-20.246093-49.992187-31.398437-79.519531-31.128906h-79.777344c-4.417968 0-8-3.578125-8-8 0-4.417968 3.582032-8 8-8h47.144532c11.941406.15625 22.273437-8.273437 24.527343-20 1.175781-6.964844-.773437-14.097656-5.335937-19.492187-4.5625-5.398438-11.269532-8.50781275-18.335938-8.50781275h-64c-22.082031.02734375-39.972656 17.92187475-40 39.99999975v32c.054688 14.898438 8.402344 28.523438 21.648438 35.335938l-42.769532 92.664062h-58.878906c-2.773437 0-5.347656 1.433594-6.808594 3.792969-1.457031 2.359375-1.589843 5.304687-.351562 7.785156l14.214844 28.421875-14.214844 28.425782c-1.238281 2.480468-1.105469 5.425781.351562 7.785156 1.460938 2.355468 4.035157 3.792968 6.808594 3.789062h58.878906l42.769532 92.664063c-13.246094 6.816406-21.59375 20.441406-21.648438 35.335937v32c.027344 22.082032 17.917969 39.976563 40 40h64c7.066406.003906 13.773438-3.109375 18.335938-8.503906s6.511718-12.527344 5.335937-19.496094c-2.253906-11.726562-12.585937-20.152344-24.527343-20h-47.144532c-4.417968 0-8-3.578125-8-8 0-4.417968 3.582032-8 8-8h79.472656c29.636719.386719 58.261719-10.773437 79.824219-31.109375 30.96875-28.984375 47.101563-75.121093 48.445313-136.890625h64.257812v16c-.015625 2.78125 1.414063 5.371094 3.773438 6.839844 2.363281 1.46875 5.316406 1.605469 7.800781.363281l48-24c2.71875-1.355469 4.433594-4.128906 4.433594-7.160156 0-3.035156-1.714844-5.808594-4.433594-7.160156zm-371.574219-192.839844c0-13.253906 10.746094-24 24-24h64c2.367188 0 4.617188 1.042969 6.140625 2.859375 1.519531 1.8125 2.160157 4.210938 1.746094 6.542969-.980469 3.992188-4.632813 6.75-8.742187 6.597656h-47.144532c-13.253906 0-24 10.746094-24 24 0 13.257813 10.746094 24 24 24h80.527344c25.210938-.042968 49.480469 9.554688 67.839844 26.832032 27.632812 25.851562 42.121094 68.058593 43.382812 125.167968h-15.582031c0-21.199218-3.089844-77.277344-34.511719-110.597656-15.972656-16.894531-38.417968-26.140625-61.65625-25.402344h-96c-13.253906 0-24-10.742187-24-24zm21.246094 71.722656c.929688.0625 1.808594.277344 2.753906.277344h96c18.804688-.667968 36.996094 6.738282 49.992188 20.34375 27.199218 28.800782 30.078125 80.425782 30.152344 99.65625h-187.199219l-13.746094-27.574218c-1.359375-2.726563-4.152344-4.441407-7.199219-4.425782h-11.496094zm-94.046875 124.703126-10.253906-20.425782h70.109375l12 24-12 24h-70.109375l10.253906-20.421875c1.125-2.25 1.125-4.902343 0-7.152343zm53.304687 43.574218h11.496094c3.03125.003906 5.804688-1.710937 7.160156-4.421875l13.785157-27.578125h187.199219c-.074219 19.203125-2.945313 70.824219-30.152344 99.65625-12.996094 13.609375-31.1875 21.011719-49.992188 20.34375h-96c-.945312 0-1.824218.21875-2.753906.28125zm208.089844 92.976563c-18.578125 17.433593-43.117187 27.101562-68.59375 27.023437h-80c-13.253906 0-24 10.746094-24 24 0 13.257813 10.746094 24 24 24h47.144532c4.105468-.144531 7.753906 2.605469 8.742187 6.59375.417969 2.332032-.222656 4.730469-1.742187 6.546875-1.523438 1.816407-3.773438 2.863281-6.144532 2.859375h-64c-13.253906 0-24-10.742187-24-24v-32c0-13.253906 10.746094-24 24-24h96c23.238282.742188 45.683594-8.503906 61.65625-25.398437 31.421875-33.320313 34.527344-89.398438 34.511719-110.601563h15.582031c-1.253906 56.953125-15.652344 99.089844-43.15625 124.976563zm139.40625-121.917969v-22.113281l22.113282 11.054687zm0 0"/></svg>